<svg width="2931" height="1078" viewBox="0 0 2931 1078" fill="none" xmlns="http://www.w3.org/2000/svg">
<path fill-rule="evenodd" clip-rule="evenodd" d="M179.31 527.5H215.517C226.182 527.5 234.828 518.854 234.828 508.19V469.569C234.828 458.904 243.473 450.259 254.138 450.259H448.448C459.113 450.259 467.759 441.613 467.759 430.948V392.328C467.759 381.663 476.404 373.017 487.069 373.017H528.103C538.768 373.017 547.414 364.372 547.414 353.707V237.845C547.414 227.18 538.768 218.534 528.103 218.534H487.069C476.404 218.534 467.759 209.889 467.759 199.224V161.81C467.759 151.146 459.113 142.5 448.448 142.5H195.142C175.734 142.5 160 158.234 160 177.642V508.19C160 518.854 168.646 527.5 179.31 527.5ZM258.965 373.017H442.413C455.744 373.017 466.551 362.21 466.551 348.879V243.879C466.551 230.548 455.744 219.741 442.413 219.741H258.965C245.634 219.741 234.827 230.548 234.827 243.879V348.879C234.827 362.21 245.634 373.017 258.965 373.017Z" fill="#121415"/>
<path fill-rule="evenodd" clip-rule="evenodd" d="M767.826 551.845C771.753 553.187 775.824 553.858 780.102 553.858L780.094 553.85C780.113 553.85 780.131 553.85 780.15 553.85C794.368 566.159 810.12 572.5 826.475 572.5L826.452 572.485C829.525 572.485 832.621 572.264 835.724 571.814C859.016 568.445 876.061 552.429 891.101 538.296L891.117 538.281L891.126 538.273C894.746 534.871 898.252 531.577 901.723 528.529C924.709 530.03 943.341 529.272 959.381 520.981C965.469 517.832 970.04 514.486 973.623 510.634C981.653 509.711 988.047 507.884 994.096 504.863C1003.48 500.174 1010.53 493.464 1016.3 483.743C1021.3 475.31 1025.45 464.415 1029.74 448.403C1030.53 445.468 1032.21 442.052 1035.38 436.997C1035.96 436.059 1036.59 435.083 1037.37 433.871C1037.84 433.162 1039.44 430.699 1039.56 430.509C1041.12 428.116 1042.58 425.767 1043.95 423.45C1045.39 422.047 1046.77 420.639 1048.13 419.209C1063.14 403.419 1071.02 387.56 1072.23 370.725C1072.72 363.908 1072.23 357.435 1070.68 350.36C1069.88 346.692 1067.06 337.406 1062.07 321.958C1061.84 321.234 1061.69 320.769 1061.66 320.677C1061.1 318.791 1060.56 316.901 1060.05 315.004C1062.33 308.25 1063.24 302.028 1062.87 294.19C1062.37 283.53 1058.93 272.697 1052.25 260.994C1051.97 254.313 1051.85 247.275 1051.9 239.781C1052.03 219.073 1045.3 203.237 1031.33 191.381C1027.11 187.801 1022.89 184.933 1017.91 182.262C1016.13 165.176 1012.38 154.179 1000.07 142.142C996.978 139.107 993.501 136.271 989.46 133.465C977.352 124.643 963.285 120.274 946.457 120.099C937.719 120.017 929.939 120.924 920.054 122.674C915.58 119.249 911.318 116.325 906.687 113.473C889.241 102.723 871.788 97.5 853.322 97.5H853.306C842.585 97.5 828.156 101.825 816.362 106.165C812.117 105.519 809.059 105.057 806.041 104.614C791.18 102.425 784.57 101.686 779.835 101.686C764.189 101.686 750.381 104.537 736.39 110.66C717.653 118.848 700.768 132.415 686.093 151.055C666.236 153.903 650.255 163.899 642.164 178.587C635.321 191.002 634.953 205.221 641.126 218.659C632.585 232.983 623.943 248.465 613.587 267.74C600.853 291.437 595.852 311.825 597.834 331.908C599.71 350.863 607.327 368.841 623.285 392.02C626.213 396.274 629.614 400.087 633.395 403.365C634.444 404.275 635.456 405.102 636.456 405.868C635.139 410.303 634.455 414.66 634.455 419.499C634.455 430.48 638.164 440.532 646.344 450.806C645.468 455.803 644.962 460.797 644.962 466.222C644.962 475.409 646.83 483.728 650.52 490.948C654.226 498.191 659.716 504.306 666.837 509.117C675.415 514.912 683.642 517.764 699.989 522.323L701.095 522.628C707.027 524.283 712.845 524.786 719.958 524.252C721.964 524.1 723.283 523.962 726.767 523.543C727.301 523.479 727.813 523.42 728.304 523.365C732.2 527.131 735.225 529.951 738.158 532.563C749.679 542.825 758.829 548.765 767.826 551.845ZM793.718 537.361C791.971 535.824 790.241 534.158 788.527 532.365C774.071 517.23 761.879 508.271 750.175 504.169C744.777 502.271 740.24 501.546 735.162 501.546L735.177 501.561C732.44 501.561 729.543 501.773 726.273 502.126C723.488 499.386 721.403 497.36 719.387 495.416C711.625 487.944 705.441 482.401 699.334 477.445C697.244 475.745 691.541 471.567 684.298 466.275C681.271 464.072 678.663 462.158 677.725 461.449C673.967 458.588 670.607 455.85 667.624 453.203C668.169 450.352 668.904 447.21 669.864 443.562C669.975 443.145 670.075 442.773 670.191 442.343C670.329 441.828 670.49 441.23 670.718 440.375C671.237 438.438 671.526 437.348 671.786 436.349L671.999 435.503C674.393 425.919 675.331 418.195 672.586 409.274C671.298 405.104 669.78 402.244 667.661 399.988C665.861 398.074 663.749 396.793 661.111 395.459L661.109 395.458C660.607 395.207 660.241 395.023 659.037 394.445C658.249 394.065 657.522 393.708 656.845 393.368C662.155 382.78 663.968 378.058 663.406 371.571C662.735 363.771 657.642 357.054 647.379 350.421C625.733 336.437 625.603 328.088 628.683 321.142C629.926 318.344 631.916 315.378 635.347 311.246C636.011 310.445 637.993 308.15 639.907 305.939C640.32 305.46 640.735 304.978 641.144 304.504C642.849 302.527 644.434 300.689 645.191 299.779C664.162 276.965 668.812 256.08 659.947 228.819C671.324 209.795 682.574 192.78 697.671 171.282C699.575 168.572 701.521 165.971 703.509 163.481C703.943 163.477 704.383 163.475 704.831 163.475V163.452C707.736 163.452 710.946 163.536 714.751 163.696C721.895 164.001 724.518 164.047 728.117 163.772C737.838 163.033 746.225 159.64 757.068 152.053C770.682 142.528 787.745 133.237 804.144 125.929C808.055 126.511 812.301 127.157 819.331 128.227L820.856 128.463C828.168 129.576 832.529 130.24 836.692 130.857L841.419 131.559C850.661 132.924 857.561 135.081 865.239 139.023C866.207 139.526 868.655 140.845 870.439 141.814C871.735 142.515 872.825 143.102 873.207 143.3C880.313 146.991 885.688 148.363 893.061 148.363C898.864 148.363 902.615 147.746 917.552 144.871C919.853 144.428 921.972 144.036 923.944 143.69L924.231 143.941C927.906 147.181 932.199 151.07 937.727 156.186L940.883 159.106C941.667 159.827 942.372 160.478 943.035 161.089C943.501 161.519 943.946 161.929 944.383 162.331C953.853 171.023 964.649 175.895 983.825 182.933L986.136 183.779C990.231 185.28 993.822 186.635 997.008 187.895C997.052 188.411 997.096 188.937 997.138 189.475C999.189 215.398 1003.35 231.074 1022.61 255.442C1034.83 270.904 1041.03 283.912 1041.56 295.219C1041.93 303.217 1040.51 308.265 1034.29 320.944L1034.26 320.998C1025.85 338.122 1023.31 348.69 1030.5 366.028C1038.3 384.853 1036.41 396.221 1021.69 418.881C1021.59 419.034 1019.93 421.58 1019.46 422.305C1018.62 423.616 1017.93 424.691 1017.29 425.713C1016.24 427.404 1015.29 428.987 1014.45 430.489C1009.2 434.474 1003.09 438.897 995.766 444.034C987.02 450.172 981.187 457.271 977.39 466.39C975.766 470.286 974.912 473.16 973.006 480.381C972.077 483.895 971.171 486.919 970.216 489.558C968.469 489.733 966.585 489.859 964.535 489.942L962.995 489.995C961.439 490.041 959.876 490.071 957.97 490.071H955.782C953.685 490.064 951.169 490.041 947.944 490.003H947.12C942.66 489.957 940.258 489.942 937.46 489.942C916.378 489.942 900.736 500.866 886.441 513.582C864.925 511.897 855.581 511.813 845.804 514.142C836.303 516.406 827.733 520.386 816.144 526.501C804.722 532.525 800.719 534.599 797.105 536.078L796.289 536.406C795.537 536.702 794.738 536.999 793.718 537.361ZM807.234 546.555C815.458 550.571 823.968 551.965 832.689 550.702C847.772 548.517 860.035 538.111 872.614 526.398C860.568 525.739 854.794 526.112 848.96 527.5C841.724 529.223 835.053 532.037 822.525 538.647C814.997 542.619 810.557 544.943 807.234 546.555ZM920.337 515.391C931.591 515.264 940.077 513.971 947.267 511.344H946.876C942.515 511.29 940.167 511.275 937.437 511.275C931.309 511.275 925.699 512.796 920.337 515.391ZM985.936 485.068C994.65 480.171 1000.42 471.304 1006.05 453.559C1005.26 454.12 1004.45 454.688 1003.63 455.265C996.925 459.97 992.861 464.872 990.04 471.666C988.774 474.708 988.133 476.767 986.25 483.895C986.146 484.29 986.041 484.681 985.936 485.068ZM1056.15 381.807C1057.47 377.809 1058.28 373.791 1058.57 369.733C1058.97 364.267 1058.56 359.044 1057.3 353.287C1056.89 351.451 1055.55 346.588 1051.6 334.176C1046.29 345.724 1046.75 349.491 1050.21 357.832C1053.81 366.526 1055.7 374.392 1056.15 381.807ZM1038.18 240.696C1038.19 240.362 1038.19 240.026 1038.19 239.69C1038.29 223.061 1033.29 211.029 1022.46 201.834C1021.53 201.047 1020.6 200.299 1019.65 199.578C1021.83 214.979 1026.18 225.229 1038.18 240.696ZM994.557 172.273C992.798 166.196 990.013 162.178 985.152 157.429C982.926 155.248 980.249 153.075 977.207 150.971L976.971 150.803C968.561 144.65 958.512 141.6 946.243 141.471C944.839 141.457 943.452 141.473 942.041 141.525C943.595 142.946 945.253 144.472 947.036 146.122L950.193 149.042C950.811 149.613 951.381 150.138 951.919 150.634C952.529 151.197 953.1 151.722 953.655 152.236C960.654 158.656 968.805 162.819 988.545 170.063L990.84 170.901C992.119 171.37 993.357 171.826 994.557 172.273ZM901.164 126.185C900.612 125.835 900.054 125.487 899.489 125.139C884.064 115.631 869.394 111.201 853.329 111.201H853.314C852.3 111.201 851.213 111.255 850.058 111.36C859.118 113.128 866.813 115.818 874.976 120.008C876.157 120.618 878.521 121.891 880.603 123.019C881.069 123.271 881.505 123.508 881.881 123.712C882.426 124.008 882.844 124.234 883.043 124.338C887.061 126.427 889.211 126.999 893.061 126.999C895.347 126.999 897.128 126.865 901.164 126.185ZM778.692 123.056C767.882 128.739 757.725 134.832 749.176 140.815C739.066 147.89 733.019 149.644 727.057 150.094C724.345 150.303 722.398 150.293 715.782 150.015C724.839 141.381 734.592 134.76 744.952 130.232C755.97 125.418 766.421 123.186 778.692 123.056ZM673.441 168.68C664.87 172.362 658.164 178.053 654.211 185.228C651.179 190.73 650.022 196.794 650.753 202.933C657.716 191.857 665.002 180.89 673.441 168.68ZM649.903 246.068C644.471 255.626 638.768 266.011 632.404 277.858C626.471 288.898 622.56 298.717 620.505 307.961C621.702 306.265 623.1 304.46 624.749 302.47C625.504 301.563 627.441 299.321 629.492 296.95C631.588 294.525 633.754 292.017 634.608 290.987C645.962 277.334 652.455 264.397 649.903 246.068ZM623.842 349.291C627.387 358.489 632.924 368.367 640.883 379.92C642.281 381.954 643.784 383.772 645.438 385.426C649.379 377.408 649.923 375.257 649.705 372.745C649.43 369.604 646.136 365.967 639.899 361.941C634.536 358.478 628.678 354.273 623.842 349.291ZM648.777 413.198C648.371 415.305 648.203 417.331 648.203 419.491C648.203 423.806 649.033 427.956 650.811 432.108C650.912 431.724 651.001 431.384 651.085 431.058L651.283 430.272C653.334 422.076 653.197 418.881 652.167 415.557C652.085 415.278 652.003 415.041 651.933 414.842C651.919 414.802 651.906 414.763 651.893 414.726C651.763 414.657 651.618 414.581 651.458 414.505C651.062 414.306 650.757 414.154 649.758 413.674C649.425 413.513 649.098 413.355 648.777 413.198ZM666.495 470.133C667.438 470.876 668.403 471.623 669.392 472.375C670.261 473.035 672.163 474.425 674.628 476.228C675.123 476.59 675.641 476.969 676.177 477.361C681.454 481.212 688.674 486.488 690.664 488.104C695.508 492.037 700.438 496.39 706.289 501.917L705.807 501.783C689.81 497.315 684.511 495.286 678.8 491.428C674.645 488.623 671.618 485.283 669.544 481.234C667.878 477.974 666.871 474.316 666.495 470.133Z" fill="url(#paint0_radial_303_1196)"/>
<path fill-rule="evenodd" clip-rule="evenodd" d="M1141.66 526.276H1177.75C1188.38 526.276 1197 517.658 1197 507.028V468.532C1197 457.902 1205.62 449.284 1216.25 449.284H1409.93C1420.56 449.284 1429.18 457.902 1429.18 468.532V508.231C1429.18 518.861 1437.8 527.479 1448.43 527.479H1489.33C1499.96 527.479 1508.58 518.861 1508.58 508.231V468.532C1508.58 457.902 1499.96 449.284 1489.33 449.284H1449.33C1438.82 449.284 1430.25 440.849 1430.08 430.337L1429.48 391.841C1429.32 381.095 1437.98 372.293 1448.73 372.293H1489.33C1499.96 372.293 1508.58 363.675 1508.58 353.045V237.558C1508.58 226.927 1499.96 218.31 1489.33 218.31H1448.43C1437.8 218.31 1429.18 209.692 1429.18 199.062V161.769C1429.18 151.139 1420.56 142.521 1409.93 142.521H1157.61C1138.17 142.521 1122.41 158.281 1122.41 177.721V507.028C1122.41 517.658 1131.03 526.276 1141.66 526.276ZM1221.06 372.293H1403.91C1417.2 372.293 1427.97 361.521 1427.97 348.233V243.573C1427.97 230.285 1417.2 219.513 1403.91 219.513H1221.06C1207.77 219.513 1197 230.285 1197 243.573V348.233C1197 361.521 1207.77 372.293 1221.06 372.293Z" fill="#121415"/>
<path d="M1568.58 161.769C1568.58 151.139 1577.19 142.521 1587.82 142.521H1934.29C1944.92 142.521 1953.53 151.139 1953.53 161.769V200.265C1953.53 210.895 1944.92 219.513 1934.29 219.513H1818.8C1808.17 219.513 1799.55 228.13 1799.55 238.76V508.231C1799.55 518.861 1790.93 527.479 1780.3 527.479H1743.01C1732.38 527.479 1723.76 518.861 1723.76 508.231V238.76C1723.76 228.13 1715.14 219.513 1704.51 219.513H1587.82C1577.19 219.513 1568.58 210.895 1568.58 200.265V161.769Z" fill="#121415"/>
<path fill-rule="evenodd" clip-rule="evenodd" d="M2032.78 526.276H2068.87C2079.5 526.276 2088.12 517.658 2088.12 507.028V468.532C2088.12 457.902 2096.74 449.284 2107.37 449.284H2301.05C2311.68 449.284 2320.3 457.902 2320.3 468.532V508.231C2320.3 518.861 2328.91 527.479 2339.54 527.479H2380.45C2391.08 527.479 2399.69 518.861 2399.69 508.231V237.557C2399.69 226.927 2391.08 218.31 2380.45 218.31H2339.54C2328.91 218.31 2320.3 209.692 2320.3 199.062V161.769C2320.3 151.139 2311.68 142.521 2301.05 142.521H2108.57C2097.94 142.521 2089.32 151.139 2089.32 161.769V199.062C2089.32 209.692 2080.7 218.31 2070.07 218.31H2032.78C2022.15 218.31 2013.53 226.927 2013.53 237.558V507.028C2013.53 517.658 2022.15 526.276 2032.78 526.276ZM2112.18 372.293H2295.03C2308.32 372.293 2319.09 361.521 2319.09 348.233V243.573C2319.09 230.285 2308.32 219.513 2295.03 219.513H2112.18C2098.89 219.513 2088.12 230.285 2088.12 243.573V348.233C2088.12 361.521 2098.89 372.293 2112.18 372.293Z" fill="#121415"/>
<path d="M2459.69 508.231C2459.69 518.861 2468.31 527.479 2478.94 527.479H2750.82C2761.45 527.479 2770.07 518.861 2770.07 508.231V469.735C2770.07 459.105 2761.45 450.487 2750.82 450.487H2554.73C2544.1 450.487 2535.48 441.87 2535.48 431.24V161.769C2535.48 151.139 2526.87 142.521 2516.24 142.521H2478.94C2468.31 142.521 2459.69 151.139 2459.69 161.769L2459.69 508.231Z" fill="#121415"/>
<path d="M160 649.349C160 641.545 166.327 635.218 174.131 635.218H429.214C437.018 635.218 443.345 641.545 443.345 649.349V677.468C443.345 685.273 437.018 691.6 429.214 691.6H344.138C336.334 691.6 330.007 697.926 330.007 705.731V902.995C330.007 910.799 323.68 917.126 315.876 917.126H288.355C280.55 917.126 274.223 910.799 274.223 902.995V705.731C274.223 697.926 267.897 691.6 260.092 691.6H174.131C166.327 691.6 160 685.273 160 677.468V649.349Z" fill="#121415"/>
<path fill-rule="evenodd" clip-rule="evenodd" d="M531.96 635.218H673.191C680.991 635.218 687.315 641.509 687.315 649.269V678.251C687.315 686.011 693.638 692.302 701.438 692.302H729.684C737.484 692.302 743.807 698.593 743.807 706.354V845.99C743.807 853.751 737.484 860.042 729.684 860.042H701.438C693.638 860.042 687.315 866.333 687.315 874.093V903.074C687.315 910.835 680.991 917.126 673.191 917.126H531.96C524.16 917.126 517.837 910.835 517.837 903.074V874.093C517.837 866.333 511.514 860.042 503.714 860.042H475.468C467.668 860.042 461.345 853.751 461.345 845.99V706.354C461.345 698.593 467.668 692.302 475.468 692.302H503.714C511.514 692.302 517.837 686.011 517.837 678.251V649.269C517.837 641.509 524.16 635.218 531.96 635.218ZM517.84 706.354V845.991C517.84 853.751 524.163 860.042 531.963 860.042H673.194C680.994 860.042 687.317 853.751 687.317 845.991V706.354C687.317 698.594 680.994 692.303 673.194 692.303H531.963C524.163 692.303 517.84 698.594 517.84 706.354Z" fill="#121415"/>
<path fill-rule="evenodd" clip-rule="evenodd" d="M1144.67 676.329V648.885C1144.67 641.062 1138.18 634.72 1130.17 634.72H946.642C928.314 634.72 913.457 649.226 913.457 667.12V902.961C913.457 910.784 919.952 917.126 927.965 917.126H1130.17C1138.18 917.126 1144.67 910.784 1144.67 902.961V873.747C1144.67 865.924 1151.17 859.582 1159.18 859.582H1189.1C1197.12 859.582 1203.61 853.241 1203.61 845.418V815.318C1203.61 807.495 1197.12 801.154 1189.1 801.154H1159.18C1151.17 801.154 1144.67 794.812 1144.67 786.989V760.431C1144.67 752.608 1151.17 746.266 1159.18 746.266H1189.1C1197.12 746.266 1203.61 739.924 1203.61 732.102V704.658C1203.61 696.835 1197.12 690.493 1189.1 690.493H1159.18C1151.17 690.493 1144.67 684.152 1144.67 676.329ZM971.487 845.418V817.089C971.487 809.266 977.983 802.925 985.995 802.925H1127.45C1135.46 802.925 1141.95 809.266 1141.95 817.089V845.418C1141.95 853.241 1135.46 859.583 1127.45 859.583H985.995C977.983 859.583 971.487 853.241 971.487 845.418ZM971.487 703.774V732.103C971.487 739.926 977.983 746.268 985.995 746.268H1127.45C1135.46 746.268 1141.95 739.926 1141.95 732.103V703.774C1141.95 695.951 1135.46 689.61 1127.45 689.61H985.995C977.983 689.61 971.487 695.951 971.487 703.774Z" fill="#121415"/>
<path d="M1252.61 649.483C1252.61 641.605 1259 635.218 1266.88 635.218H1295.19C1303.07 635.218 1309.46 641.605 1309.46 649.483V902.861C1309.46 910.739 1303.07 917.126 1295.19 917.126H1266.88C1259 917.126 1252.61 910.739 1252.61 902.861V649.483Z" fill="#121415"/>
<path d="M1358.46 649.483C1358.46 641.605 1364.84 635.218 1372.72 635.218H1632.93C1640.81 635.218 1647.19 641.605 1647.19 649.483V677.334C1647.19 685.213 1640.81 691.6 1632.93 691.6H1545.96C1538.09 691.6 1531.7 697.986 1531.7 705.865V902.861C1531.7 910.739 1525.31 917.126 1517.43 917.126H1489.12C1481.24 917.126 1474.85 910.739 1474.85 902.861V705.865C1474.85 697.986 1468.47 691.6 1460.59 691.6H1372.72C1364.84 691.6 1358.46 685.213 1358.46 677.334V649.483Z" fill="#121415"/>
<path d="M1984.93 705.865V733.716C1984.93 741.594 1978.54 747.981 1970.67 747.981H1941.45C1933.57 747.981 1927.18 741.594 1927.18 733.716V708.508C1927.18 700.629 1920.8 694.242 1912.92 694.242H1768.21C1760.33 694.242 1753.94 700.629 1753.94 708.508V842.955C1753.94 850.834 1760.33 857.22 1768.21 857.22H1912.92C1920.8 857.22 1927.18 850.834 1927.18 842.955V818.628C1927.18 810.749 1933.57 804.363 1941.45 804.363H1970.67C1978.54 804.363 1984.93 810.749 1984.93 818.628V846.479C1984.93 854.357 1978.54 860.744 1970.67 860.744H1941.45C1933.57 860.744 1927.18 867.131 1927.18 875.009V902.861C1927.18 910.739 1920.8 917.126 1912.92 917.126H1768.21C1760.33 917.126 1753.94 910.739 1753.94 902.861V875.009C1753.94 867.131 1747.55 860.744 1739.68 860.744H1710.46C1702.58 860.744 1696.19 854.357 1696.19 846.479V705.865C1696.19 697.986 1702.58 691.6 1710.46 691.6H1739.68C1747.55 691.6 1753.94 685.213 1753.94 677.334V649.483C1753.94 641.605 1760.33 635.218 1768.21 635.218H1912.92C1920.8 635.218 1927.18 641.605 1927.18 649.483V677.334C1927.18 685.213 1933.57 691.6 1941.45 691.6H1970.67C1978.54 691.6 1984.93 697.986 1984.93 705.865Z" fill="#121415"/>
<path fill-rule="evenodd" clip-rule="evenodd" d="M2105.89 635.218H2249.81C2257.76 635.218 2264.2 641.509 2264.2 649.269V678.251C2264.2 686.011 2270.64 692.302 2278.59 692.302H2307.38C2315.33 692.302 2321.77 698.593 2321.77 706.354V845.99C2321.77 853.751 2315.33 860.042 2307.38 860.042H2278.59C2270.64 860.042 2264.2 866.333 2264.2 874.093V903.074C2264.2 910.835 2257.76 917.126 2249.81 917.126H2105.89C2097.94 917.126 2091.5 910.835 2091.5 903.074V874.093C2091.5 866.333 2085.05 860.042 2077.11 860.042H2048.32C2040.37 860.042 2033.93 853.751 2033.93 845.99V706.354C2033.93 698.593 2040.37 692.302 2048.32 692.302H2077.11C2085.05 692.302 2091.5 686.011 2091.5 678.251V649.269C2091.5 641.509 2097.94 635.218 2105.89 635.218ZM2091.5 706.354V845.99C2091.5 853.751 2097.94 860.042 2105.89 860.042H2249.81C2257.76 860.042 2264.2 853.751 2264.2 845.99V706.354C2264.2 698.593 2257.76 692.302 2249.81 692.302H2105.89C2097.94 692.302 2091.5 698.593 2091.5 706.354Z" fill="#121415"/>
<path d="M2370.77 649.483C2370.77 641.605 2377.16 635.218 2385.03 635.218H2413.35C2421.23 635.218 2427.61 641.605 2427.61 649.483V902.861C2427.61 910.739 2421.23 917.126 2413.35 917.126H2385.03C2377.16 917.126 2370.77 910.739 2370.77 902.861V649.483Z" fill="#121415"/>
<path d="M2476.62 691.599V902.861C2476.62 910.739 2483 917.126 2490.88 917.126H2522.8C2530.68 917.126 2537.07 910.739 2537.07 902.861V734.604C2537.07 732.229 2540.32 731.558 2541.26 733.74L2613.4 901.267C2617.54 910.891 2627.01 917.126 2637.49 917.126H2721.45C2729.33 917.126 2735.72 910.739 2735.72 902.861V860.744V650.364C2735.72 642.486 2729.33 636.099 2721.45 636.099H2692.24C2684.36 636.099 2677.97 642.486 2677.97 650.364V848.271C2677.97 855.16 2672.39 860.744 2665.5 860.744C2660.48 860.744 2655.95 857.74 2654.01 853.118L2566.15 644.82C2563.93 639.535 2558.75 636.099 2553.01 636.099H2534.36L2491.1 635.439C2483.13 635.317 2476.61 641.739 2476.61 649.703L2476.62 691.599Z" fill="#121415"/>
<defs>
<radialGradient id="paint0_radial_303_1196" cx="0" cy="0" r="1" gradientUnits="userSpaceOnUse" gradientTransform="translate(656.077 541.15) rotate(-40.976) scale(533.679 1003.71)">
<stop offset="0.223957" stop-color="#5F2FF6"/>
<stop offset="1" stop-color="#FA01FF"/>
</radialGradient>
</defs>
</svg>
