<svg width="2885" height="1078" viewBox="0 0 2885 1078" fill="none" xmlns="http://www.w3.org/2000/svg">
<rect x="1" y="1" width="2883.01" height="1075.13" stroke="#8A8A8A" stroke-width="2"/>
<path fill-rule="evenodd" clip-rule="evenodd" d="M177.584 510.29H210.554C220.265 510.29 228.138 502.417 228.138 492.706V457.538C228.138 447.827 236.01 439.954 245.722 439.954H422.66C432.371 439.954 440.244 432.081 440.244 422.37V387.202C440.244 377.491 448.116 369.618 457.828 369.618H495.194C504.905 369.618 512.777 361.746 512.777 352.034V246.531C512.777 236.819 504.905 228.947 495.194 228.947H457.828C448.116 228.947 440.244 221.074 440.244 211.363V177.294C440.244 167.583 432.371 159.71 422.66 159.71H192C174.327 159.71 160 174.037 160 191.71V492.706C160 502.417 167.873 510.29 177.584 510.29ZM250.117 369.618H417.165C429.304 369.618 439.144 359.778 439.144 347.638V252.026C439.144 239.887 429.304 230.046 417.165 230.046H250.117C237.978 230.046 228.137 239.887 228.137 252.026V347.638C228.137 359.778 237.978 369.618 250.117 369.618Z" fill="#F4F4F4"/>
<path fill-rule="evenodd" clip-rule="evenodd" d="M763.189 551.845C767.116 553.187 771.188 553.858 775.465 553.858L775.458 553.85C775.476 553.85 775.495 553.85 775.513 553.85C789.731 566.159 805.484 572.5 821.838 572.5L821.816 572.485C824.888 572.485 827.984 572.264 831.087 571.814C854.38 568.445 871.425 552.429 886.464 538.296L886.48 538.281L886.489 538.273C890.11 534.871 893.615 531.577 897.087 528.529C920.072 530.03 938.705 529.272 954.744 520.981C960.832 517.832 965.403 514.486 968.986 510.634C977.016 509.711 983.411 507.884 989.459 504.863C998.845 500.174 1005.9 493.464 1011.66 483.743C1016.66 475.31 1020.81 464.415 1025.1 448.403C1025.9 445.468 1027.58 442.052 1030.74 436.997C1031.33 436.059 1031.95 435.083 1032.74 433.871C1033.2 433.162 1034.8 430.699 1034.93 430.509C1036.48 428.116 1037.95 425.767 1039.32 423.45C1040.75 422.047 1042.14 420.639 1043.5 419.209C1058.5 403.419 1066.38 387.56 1067.6 370.725C1068.08 363.908 1067.59 357.435 1066.04 350.36C1065.24 346.692 1062.42 337.406 1057.43 321.958C1057.2 321.234 1057.05 320.769 1057.02 320.677C1056.46 318.791 1055.92 316.901 1055.41 315.004C1057.69 308.25 1058.61 302.028 1058.23 294.19C1057.73 283.53 1054.3 272.697 1047.62 260.994C1047.33 254.313 1047.22 247.275 1047.26 239.781C1047.39 219.073 1040.66 203.237 1026.69 191.381C1022.47 187.801 1018.25 184.933 1013.28 182.262C1011.49 165.176 1007.74 154.179 995.437 142.142C992.341 139.107 988.865 136.271 984.823 133.465C972.716 124.643 958.648 120.274 941.82 120.099C933.082 120.017 925.302 120.924 915.417 122.674C910.943 119.249 906.681 116.325 902.05 113.473C884.605 102.723 867.152 97.5 848.685 97.5H848.67C837.948 97.5 823.519 101.825 811.726 106.165C807.481 105.519 804.422 105.057 801.404 104.614C786.544 102.425 779.933 101.686 775.198 101.686C759.553 101.686 745.744 104.537 731.753 110.66C713.016 118.848 696.131 132.415 681.456 151.055C661.599 153.903 645.618 163.899 637.527 178.587C630.685 191.002 630.316 205.221 636.49 218.659C627.948 232.983 619.307 248.465 608.95 267.74C596.217 291.437 591.215 311.825 593.197 331.908C595.073 350.863 602.69 368.841 618.649 392.02C621.576 396.274 624.977 400.087 628.759 403.365C629.807 404.275 630.819 405.102 631.82 405.868C630.502 410.303 629.819 414.66 629.819 419.499C629.819 430.48 633.528 440.532 641.707 450.806C640.832 455.803 640.325 460.797 640.325 466.222C640.325 475.409 642.194 483.728 645.884 490.948C649.589 498.191 655.079 504.306 662.201 509.117C670.778 514.912 679.005 517.764 695.353 522.323L696.458 522.628C702.39 524.283 708.208 524.786 715.322 524.252C717.327 524.1 718.646 523.962 722.131 523.543C722.664 523.479 723.176 523.42 723.668 523.365C727.564 527.131 730.588 529.951 733.522 532.563C745.043 542.825 754.192 548.765 763.189 551.845ZM789.081 537.361C787.335 535.824 785.604 534.158 783.89 532.365C769.434 517.23 757.242 508.271 745.538 504.169C740.14 502.271 735.603 501.546 730.525 501.546L730.541 501.561C727.803 501.561 724.907 501.773 721.636 502.126C718.852 499.386 716.766 497.36 714.75 495.416C706.988 487.944 700.804 482.401 694.697 477.445C692.608 475.745 686.905 471.567 679.661 466.275C676.634 464.072 674.027 462.158 673.089 461.449C669.33 458.588 665.971 455.85 662.988 453.203C663.532 450.352 664.267 447.21 665.228 443.562C665.339 443.145 665.439 442.773 665.554 442.343C665.693 441.828 665.853 441.23 666.082 440.375C666.6 438.438 666.89 437.348 667.149 436.349L667.363 435.503C669.757 425.919 670.695 418.195 667.95 409.274C666.661 405.104 665.144 402.244 663.024 399.988C661.225 398.074 659.113 396.793 656.475 395.459L656.473 395.458C655.97 395.207 655.604 395.023 654.401 394.445C653.613 394.065 652.885 393.708 652.209 393.368C657.518 382.78 659.331 378.058 658.77 371.571C658.099 363.771 653.005 357.054 642.742 350.421C621.096 336.437 620.966 328.088 624.047 321.142C625.29 318.344 627.28 315.378 630.711 311.246C631.374 310.445 633.357 308.15 635.27 305.939C635.683 305.46 636.099 304.978 636.508 304.504C638.213 302.527 639.798 300.689 640.554 299.779C659.525 276.965 664.175 256.08 655.311 228.819C666.687 209.795 677.937 192.78 693.035 171.282C694.938 168.572 696.885 165.971 698.872 163.481C699.306 163.477 699.747 163.475 700.194 163.475V163.452C703.099 163.452 706.309 163.536 710.114 163.696C717.258 164.001 719.881 164.047 723.48 163.772C733.202 163.033 741.589 159.64 752.431 152.053C766.045 142.528 783.109 133.237 799.507 125.929C803.418 126.511 807.665 127.157 814.694 128.227L816.219 128.463C823.531 129.576 827.892 130.24 832.056 130.857L836.783 131.559C846.024 132.924 852.924 135.081 860.602 139.023C861.571 139.526 864.018 140.845 865.802 141.814C867.099 142.515 868.189 143.102 868.57 143.3C875.676 146.991 881.052 148.363 888.425 148.363C894.227 148.363 897.978 147.746 912.915 144.871C915.216 144.428 917.336 144.036 919.307 143.69L919.594 143.941C923.27 147.181 927.562 151.07 933.09 156.186L936.247 159.106C937.031 159.827 937.736 160.478 938.399 161.089C938.864 161.519 939.309 161.929 939.746 162.331C949.216 171.023 960.013 175.895 979.189 182.933L981.499 183.779C985.594 185.28 989.185 186.635 992.372 187.895C992.416 188.411 992.459 188.937 992.502 189.475C994.553 215.398 998.716 231.074 1017.98 255.442C1030.19 270.904 1036.39 283.912 1036.92 295.219C1037.3 303.217 1035.87 308.265 1029.65 320.944L1029.62 320.998C1021.21 338.122 1018.68 348.69 1025.86 366.028C1033.67 384.853 1031.77 396.221 1017.05 418.881C1016.95 419.034 1015.29 421.58 1014.83 422.305C1013.98 423.616 1013.29 424.691 1012.65 425.713C1011.6 427.404 1010.66 428.987 1009.81 430.489C1004.56 434.474 998.449 438.897 991.129 444.034C982.384 450.172 976.551 457.271 972.754 466.39C971.13 470.286 970.276 473.16 968.369 480.381C967.44 483.895 966.535 486.919 965.58 489.558C963.832 489.733 961.948 489.859 959.898 489.942L958.358 489.995C956.803 490.041 955.24 490.071 953.334 490.071H951.145C949.049 490.064 946.532 490.041 943.307 490.003H942.484C938.023 489.957 935.621 489.942 932.823 489.942C911.741 489.942 896.099 500.866 881.805 513.582C860.289 511.897 850.945 511.813 841.167 514.142C831.667 516.406 823.097 520.386 811.507 526.501C800.085 532.525 796.082 534.599 792.468 536.078L791.652 536.406C790.901 536.702 790.101 536.999 789.081 537.361ZM802.598 546.555C810.822 550.571 819.331 551.965 828.053 550.702C843.135 548.517 855.398 538.111 867.977 526.398C855.931 525.739 850.158 526.112 844.324 527.5C837.088 529.223 830.416 532.037 817.889 538.647C810.36 542.619 805.921 544.943 802.598 546.555ZM915.7 515.391C926.955 515.264 935.441 513.971 942.631 511.344H942.24C937.878 511.29 935.53 511.275 932.8 511.275C926.672 511.275 921.062 512.796 915.7 515.391ZM981.299 485.068C990.013 480.171 995.781 471.304 1001.41 453.559C1000.62 454.12 999.813 454.688 998.99 455.265C992.288 459.97 988.224 464.872 985.403 471.666C984.137 474.708 983.497 476.767 981.613 483.895C981.509 484.29 981.404 484.681 981.299 485.068ZM1051.51 381.807C1052.84 377.809 1053.64 373.791 1053.93 369.733C1054.33 364.267 1053.93 359.044 1052.66 353.287C1052.26 351.451 1050.91 346.588 1046.96 334.176C1041.66 345.724 1042.11 349.491 1045.57 357.832C1049.17 366.526 1051.07 374.392 1051.51 381.807ZM1033.55 240.696C1033.55 240.362 1033.55 240.026 1033.55 239.69C1033.65 223.061 1028.66 211.029 1017.82 201.834C1016.9 201.047 1015.97 200.299 1015.01 199.578C1017.19 214.979 1021.55 225.229 1033.55 240.696ZM989.921 172.273C988.162 166.196 985.376 162.178 980.516 157.429C978.289 155.248 975.613 153.075 972.571 150.971L972.334 150.803C963.924 144.65 953.875 141.6 941.607 141.471C940.202 141.457 938.815 141.473 937.404 141.525C938.958 142.946 940.617 144.472 942.4 146.122L945.556 149.042C946.175 149.613 946.744 150.138 947.282 150.634C947.893 151.197 948.463 151.722 949.018 152.236C956.017 158.656 964.168 162.819 983.909 170.063L986.204 170.901C987.482 171.37 988.72 171.826 989.921 172.273ZM896.527 126.185C895.975 125.835 895.417 125.487 894.852 125.139C879.428 115.631 864.758 111.201 848.693 111.201H848.677C847.664 111.201 846.576 111.255 845.421 111.36C854.482 113.128 862.176 115.818 870.339 120.008C871.521 120.618 873.884 121.891 875.966 123.019C876.433 123.271 876.869 123.508 877.245 123.712C877.79 124.008 878.207 124.234 878.406 124.338C882.424 126.427 884.574 126.999 888.425 126.999C890.71 126.999 892.491 126.865 896.527 126.185ZM774.055 123.056C763.246 128.739 753.088 134.832 744.54 140.815C734.429 147.89 728.383 149.644 722.42 150.094C719.709 150.303 717.761 150.293 711.145 150.015C720.203 141.381 729.955 134.76 740.315 130.232C751.333 125.418 761.785 123.186 774.055 123.056ZM668.805 168.68C660.233 172.362 653.528 178.053 649.574 185.228C646.543 190.73 645.385 196.794 646.116 202.933C653.079 191.857 660.366 180.89 668.805 168.68ZM645.266 246.068C639.835 255.626 634.132 266.011 627.768 277.858C621.834 288.898 617.924 298.717 615.868 307.961C617.066 306.265 618.463 304.46 620.112 302.47C620.867 301.563 622.804 299.321 624.855 296.95C626.952 294.525 629.117 292.017 629.971 290.987C641.325 277.334 647.819 264.397 645.266 246.068ZM619.206 349.291C622.751 358.489 628.287 368.367 636.246 379.92C637.645 381.954 639.148 383.772 640.801 385.426C644.742 377.408 645.286 375.257 645.068 372.745C644.794 369.604 641.5 365.967 635.263 361.941C629.899 358.478 624.041 354.273 619.206 349.291ZM644.14 413.198C643.735 415.305 643.566 417.331 643.566 419.491C643.566 423.806 644.397 427.956 646.175 432.108C646.276 431.724 646.364 431.384 646.448 431.058L646.646 430.272C648.697 422.076 648.56 418.881 647.531 415.557C647.448 415.278 647.366 415.041 647.297 414.842C647.283 414.802 647.269 414.763 647.256 414.726C647.127 414.657 646.982 414.581 646.822 414.505C646.425 414.306 646.12 414.154 645.121 413.674C644.789 413.513 644.462 413.355 644.14 413.198ZM661.859 470.133C662.801 470.876 663.767 471.623 664.755 472.375C665.625 473.035 667.526 474.425 669.992 476.228C670.486 476.59 671.004 476.969 671.541 477.361C676.817 481.212 684.038 486.488 686.028 488.104C690.872 492.037 695.801 496.39 701.653 501.917L701.17 501.783C685.174 497.315 679.875 495.286 674.164 491.428C670.008 488.623 666.981 485.283 664.907 481.234C663.242 477.974 662.235 474.316 661.859 470.133Z" fill="url(#paint0_radial_303_1102)"/>
<path fill-rule="evenodd" clip-rule="evenodd" d="M1165.28 508.887H1198.08C1207.75 508.887 1215.58 501.053 1215.58 491.389V456.393C1215.58 446.729 1223.42 438.895 1233.08 438.895H1409.16C1418.82 438.895 1426.65 446.729 1426.65 456.393V492.483C1426.65 502.147 1434.49 509.981 1444.15 509.981H1481.33C1491 509.981 1498.83 502.147 1498.83 492.483V456.393C1498.83 446.729 1491 438.895 1481.33 438.895H1444.97C1435.42 438.895 1427.63 431.226 1427.48 421.67L1426.93 386.674C1426.78 376.904 1434.66 368.903 1444.43 368.903H1481.33C1491 368.903 1498.83 361.068 1498.83 351.404V246.416C1498.83 236.752 1491 228.918 1481.33 228.918H1444.15C1434.49 228.918 1426.65 221.084 1426.65 211.42V177.517C1426.65 167.853 1418.82 160.019 1409.16 160.019H1179.78C1162.1 160.019 1147.78 174.346 1147.78 192.019V491.389C1147.78 501.053 1155.61 508.887 1165.28 508.887ZM1237.45 368.903H1403.69C1415.77 368.903 1425.56 359.11 1425.56 347.03V251.884C1425.56 239.804 1415.77 230.012 1403.69 230.012H1237.45C1225.37 230.012 1215.58 239.804 1215.58 251.884V347.03C1215.58 359.11 1225.37 368.903 1237.45 368.903Z" fill="#F4F4F4"/>
<path d="M1579.83 177.517C1579.83 167.853 1587.67 160.019 1597.33 160.019H1912.3C1921.96 160.019 1929.79 167.853 1929.79 177.517V212.513C1929.79 222.177 1921.96 230.011 1912.3 230.011H1807.31C1797.64 230.011 1789.81 237.846 1789.81 247.509V492.483C1789.81 502.147 1781.98 509.981 1772.31 509.981H1738.41C1728.75 509.981 1720.91 502.147 1720.91 492.483V247.509C1720.91 237.846 1713.08 230.011 1703.41 230.011H1597.33C1587.67 230.011 1579.83 222.177 1579.83 212.513V177.517Z" fill="#F4F4F4"/>
<path fill-rule="evenodd" clip-rule="evenodd" d="M2028.29 508.887H2061.1C2070.77 508.887 2078.6 501.053 2078.6 491.389V456.393C2078.6 446.729 2086.43 438.895 2096.1 438.895H2272.17C2281.84 438.895 2289.67 446.729 2289.67 456.393V492.483C2289.67 502.147 2297.5 509.981 2307.17 509.981H2344.35C2354.02 509.981 2361.85 502.147 2361.85 492.483V438.895V368.902V246.416C2361.85 236.752 2354.02 228.918 2344.35 228.918H2307.17C2297.5 228.918 2289.67 221.084 2289.67 211.42V177.517C2289.67 167.853 2281.84 160.019 2272.17 160.019H2097.19C2087.53 160.019 2079.69 167.853 2079.69 177.517V211.42C2079.69 221.084 2071.86 228.918 2062.2 228.918H2028.29C2018.63 228.918 2010.79 236.752 2010.79 246.416V491.389C2010.79 501.053 2018.63 508.887 2028.29 508.887ZM2100.47 368.903H2266.7C2278.78 368.903 2288.58 359.11 2288.58 347.03V251.884C2288.58 239.804 2278.78 230.012 2266.7 230.012H2100.47C2088.39 230.012 2078.6 239.804 2078.6 251.884V347.03C2078.6 359.11 2088.39 368.903 2100.47 368.903Z" fill="#F4F4F4"/>
<path d="M2442.85 492.483C2442.85 502.147 2450.68 509.981 2460.35 509.981H2707.51C2717.17 509.981 2725.01 502.147 2725.01 492.483V457.487C2725.01 447.823 2717.17 439.989 2707.51 439.989H2529.25C2519.58 439.989 2511.75 432.154 2511.75 422.491V177.517C2511.75 167.853 2503.91 160.019 2494.25 160.019H2460.35C2450.68 160.019 2442.85 167.853 2442.85 177.517L2442.85 492.483Z" fill="#F4F4F4"/>
<path d="M160 669.151C160 661.943 165.843 656.1 173.051 656.1H407.974C415.182 656.1 421.026 661.943 421.026 669.151V695.254C421.026 702.462 415.182 708.305 407.974 708.305H329.667C322.459 708.305 316.615 714.148 316.615 721.357V904.074C316.615 911.283 310.772 917.126 303.564 917.126H278.277C271.069 917.126 265.226 911.283 265.226 904.075V721.357C265.226 714.149 259.383 708.305 252.175 708.305H173.051C165.843 708.305 160 702.462 160 695.254V669.151Z" fill="#F4F4F4"/>
<path fill-rule="evenodd" clip-rule="evenodd" d="M518.079 656.1H648.185C655.371 656.1 661.196 661.925 661.196 669.111V695.945C661.196 703.131 667.021 708.956 674.206 708.956H700.228C707.413 708.956 713.238 714.781 713.238 721.966V851.26C713.238 858.445 707.413 864.27 700.228 864.27H674.206C667.021 864.27 661.196 870.095 661.196 877.281V904.115C661.196 911.301 655.371 917.126 648.185 917.126H518.079C510.893 917.126 505.068 911.301 505.068 904.115V877.281C505.068 870.095 499.243 864.27 492.058 864.27H466.036C458.851 864.27 453.026 858.445 453.026 851.26V721.966C453.026 714.781 458.851 708.956 466.036 708.956H492.058C499.243 708.956 505.068 703.131 505.068 695.945V669.111C505.068 661.925 510.893 656.1 518.079 656.1ZM505.071 721.967V851.26C505.071 858.446 510.896 864.271 518.081 864.271H648.188C655.373 864.271 661.198 858.446 661.198 851.26V721.967C661.198 714.781 655.373 708.956 648.188 708.956H518.081C510.896 708.956 505.071 714.781 505.071 721.967Z" fill="#F4F4F4"/>
<path fill-rule="evenodd" clip-rule="evenodd" d="M1141.91 694.166V668.755C1141.91 661.511 1136.04 655.639 1128.8 655.639H962.886C946.318 655.639 932.886 669.071 932.886 685.639V904.01C932.886 911.254 938.758 917.126 946.001 917.126H1128.8C1136.04 917.126 1141.91 911.254 1141.91 904.01V876.96C1141.91 869.717 1147.78 863.845 1155.03 863.845H1182.08C1189.32 863.845 1195.19 857.973 1195.19 850.73V822.86C1195.19 815.616 1189.32 809.744 1182.08 809.744H1155.03C1147.78 809.744 1141.91 803.872 1141.91 796.629V772.038C1141.91 764.794 1147.78 758.922 1155.03 758.922H1182.08C1189.32 758.922 1195.19 753.05 1195.19 745.807V720.396C1195.19 713.153 1189.32 707.281 1182.08 707.281H1155.03C1147.78 707.281 1141.91 701.409 1141.91 694.166ZM985.347 850.73V824.499C985.347 817.256 991.219 811.384 998.462 811.384H1126.34C1133.58 811.384 1139.45 817.256 1139.45 824.499V850.73C1139.45 857.973 1133.58 863.845 1126.34 863.845H998.462C991.219 863.845 985.347 857.973 985.347 850.73ZM985.347 719.578V745.809C985.347 753.052 991.219 758.924 998.462 758.924H1126.34C1133.58 758.924 1139.45 753.052 1139.45 745.809V719.578C1139.45 712.335 1133.58 706.463 1126.34 706.463H998.462C991.219 706.463 985.347 712.335 985.347 719.578Z" fill="#F4F4F4"/>
<path d="M1261.19 669.151C1261.19 661.943 1267.04 656.1 1274.24 656.1H1299.53C1306.74 656.1 1312.58 661.943 1312.58 669.151V904.075C1312.58 911.283 1306.74 917.126 1299.53 917.126H1274.24C1267.04 917.126 1261.19 911.283 1261.19 904.075V669.151Z" fill="#F4F4F4"/>
<path d="M1378.58 669.151C1378.58 661.943 1384.42 656.1 1391.63 656.1H1626.56C1633.76 656.1 1639.61 661.943 1639.61 669.151V695.254C1639.61 702.462 1633.76 708.305 1626.56 708.305H1548.25C1541.04 708.305 1535.2 714.148 1535.2 721.357V904.074C1535.2 911.283 1529.35 917.126 1522.15 917.126H1496.86C1489.65 917.126 1483.81 911.283 1483.81 904.075V721.357C1483.81 714.149 1477.96 708.305 1470.76 708.305H1391.63C1384.42 708.305 1378.58 702.462 1378.58 695.254V669.151Z" fill="#F4F4F4"/>
<path d="M1966.63 721.357V747.459C1966.63 754.667 1960.79 760.51 1953.58 760.51H1927.48C1920.27 760.51 1914.43 754.667 1914.43 747.459V723.804C1914.43 716.596 1908.58 710.752 1901.38 710.752H1770.86C1763.66 710.752 1757.81 716.596 1757.81 723.804V848.607C1757.81 855.815 1763.66 861.658 1770.86 861.658H1901.38C1908.58 861.658 1914.43 855.815 1914.43 848.607V825.767C1914.43 818.559 1920.27 812.716 1927.48 812.716H1953.58C1960.79 812.716 1966.63 818.559 1966.63 825.767V851.869C1966.63 859.077 1960.79 864.921 1953.58 864.921H1927.48C1920.27 864.921 1914.43 870.764 1914.43 877.972V904.075C1914.43 911.283 1908.58 917.126 1901.38 917.126H1770.86C1763.66 917.126 1757.81 911.283 1757.81 904.074V877.972C1757.81 870.764 1751.97 864.921 1744.76 864.921H1718.66C1711.45 864.921 1705.61 859.077 1705.61 851.869V721.357C1705.61 714.148 1711.45 708.305 1718.66 708.305H1744.76C1751.97 708.305 1757.81 702.462 1757.81 695.254V669.151C1757.81 661.943 1763.66 656.1 1770.86 656.1H1901.38C1908.58 656.1 1914.43 661.943 1914.43 669.151V695.254C1914.43 702.462 1920.27 708.305 1927.48 708.305H1953.58C1960.79 708.305 1966.63 714.149 1966.63 721.357Z" fill="#F4F4F4"/>
<path fill-rule="evenodd" clip-rule="evenodd" d="M2097.69 656.1H2227.79C2234.98 656.1 2240.8 661.925 2240.8 669.111V695.945C2240.8 703.131 2246.63 708.956 2253.81 708.956H2279.83C2287.02 708.956 2292.85 714.781 2292.85 721.966V851.26C2292.85 858.445 2287.02 864.27 2279.83 864.27H2253.81C2246.63 864.27 2240.8 870.095 2240.8 877.281V904.115C2240.8 911.301 2234.98 917.126 2227.79 917.126H2097.69C2090.5 917.126 2084.68 911.301 2084.68 904.115V877.281C2084.68 870.095 2078.85 864.27 2071.66 864.27H2045.64C2038.46 864.27 2032.63 858.445 2032.63 851.26V721.966C2032.63 714.781 2038.46 708.956 2045.64 708.956H2071.66C2078.85 708.956 2084.68 703.131 2084.68 695.945V669.111C2084.68 661.925 2090.5 656.1 2097.69 656.1ZM2084.68 721.967V851.26C2084.68 858.445 2090.5 864.27 2097.69 864.27H2227.79C2234.98 864.27 2240.81 858.445 2240.81 851.26V721.967C2240.81 714.781 2234.98 708.956 2227.79 708.956H2097.69C2090.5 708.956 2084.68 714.781 2084.68 721.967Z" fill="#F4F4F4"/>
<path d="M2358.85 669.151C2358.85 661.943 2364.69 656.1 2371.9 656.1H2397.18C2404.39 656.1 2410.23 661.943 2410.23 669.151V904.075C2410.23 911.283 2404.39 917.126 2397.18 917.126H2371.9C2364.69 917.126 2358.85 911.283 2358.85 904.075V669.151Z" fill="#F4F4F4"/>
<path d="M2476.24 708.305V904.074C2476.24 911.282 2482.08 917.126 2489.29 917.126H2517.84C2525.05 917.126 2530.89 911.282 2530.89 904.074V748.224C2530.89 746.041 2533.89 745.436 2534.73 747.448L2599.88 902.426C2603.63 911.333 2612.35 917.126 2622.01 917.126H2697.42C2704.63 917.126 2710.47 911.282 2710.47 904.074V864.921V669.967C2710.47 662.759 2704.63 656.916 2697.42 656.916H2671.32C2664.11 656.916 2658.27 662.759 2658.27 669.967V853.686C2658.27 859.891 2653.24 864.921 2647.03 864.921C2642.48 864.921 2638.38 862.173 2636.64 857.964L2557.18 664.998C2555.17 660.107 2550.41 656.916 2545.12 656.916H2528.44L2489.49 656.307C2482.2 656.193 2476.24 662.069 2476.24 669.357L2476.24 708.305Z" fill="#F4F4F4"/>
<defs>
<radialGradient id="paint0_radial_303_1102" cx="0" cy="0" r="1" gradientUnits="userSpaceOnUse" gradientTransform="translate(651.44 541.15) rotate(-40.976) scale(533.679 1003.71)">
<stop offset="0.223957" stop-color="#5F2FF6"/>
<stop offset="1" stop-color="#FA01FF"/>
</radialGradient>
</defs>
</svg>
