<svg width="1077" height="1077" viewBox="0 0 1077 1077" fill="none" xmlns="http://www.w3.org/2000/svg">
<path fill-rule="evenodd" clip-rule="evenodd" d="M418.411 926.659C425.44 929.061 432.728 930.262 440.384 930.262L440.371 930.248C440.404 930.248 440.437 930.248 440.471 930.248C465.921 952.282 494.118 963.632 523.394 963.632L523.353 963.604C528.853 963.604 534.395 963.209 539.949 962.403C581.644 956.373 612.155 927.703 639.076 902.406L639.105 902.379L639.12 902.364C645.602 896.274 651.876 890.379 658.091 884.922C699.235 887.609 732.588 886.252 761.299 871.411C772.196 865.775 780.378 859.785 786.792 852.89C801.167 851.237 812.613 847.968 823.44 842.559C840.241 834.166 852.866 822.155 863.184 804.754C872.137 789.659 879.562 770.156 887.246 741.495C888.665 736.241 891.668 730.126 897.332 721.078C898.383 719.399 899.502 717.652 900.908 715.482C901.741 714.213 904.607 709.804 904.825 709.463C907.607 705.179 910.233 700.976 912.685 696.829C915.254 694.316 917.733 691.797 920.166 689.237C947.026 660.971 961.138 632.583 963.308 602.448C964.182 590.247 963.295 578.66 960.524 565.994C959.091 559.429 954.041 542.806 945.115 515.155C944.706 513.858 944.433 513.026 944.378 512.862C943.373 509.485 942.415 506.103 941.502 502.706C945.573 490.617 947.213 479.48 946.548 465.448C945.647 446.367 939.501 426.976 927.542 406.027C927.029 394.068 926.825 381.469 926.908 368.056C927.14 330.987 915.089 302.64 890.085 281.417C882.534 275.009 874.974 269.875 866.072 265.096C862.875 234.511 856.17 214.825 834.14 193.278C828.599 187.846 822.375 182.769 815.142 177.746C793.468 161.956 768.287 154.135 738.165 153.821C722.524 153.675 708.597 155.299 690.903 158.431C682.894 152.299 675.264 147.066 666.975 141.961C635.747 122.717 604.506 113.368 571.45 113.368H571.423C552.231 113.368 526.403 121.109 505.292 128.878C497.693 127.723 492.218 126.896 486.816 126.102C460.216 122.185 448.382 120.861 439.907 120.861C411.9 120.861 387.183 125.966 362.138 136.925C328.599 151.582 298.374 175.867 272.106 209.234C236.561 214.331 207.954 232.225 193.472 258.516C181.224 280.739 180.564 306.191 191.615 330.246C176.325 355.887 160.856 383.6 142.318 418.103C119.525 460.522 110.571 497.017 114.12 532.966C117.478 566.895 131.112 599.077 159.678 640.567C164.919 648.183 171.006 655.007 177.776 660.876C179.652 662.504 181.464 663.984 183.255 665.355C180.896 673.294 179.673 681.094 179.673 689.755C179.673 709.412 186.312 727.406 200.954 745.797C199.387 754.741 198.481 763.68 198.481 773.391C198.481 789.837 201.825 804.727 208.43 817.652C215.063 830.617 224.89 841.563 237.638 850.175C252.992 860.547 267.719 865.652 296.981 873.813L298.96 874.359C309.578 877.321 319.992 878.222 332.726 877.266C336.316 876.993 338.677 876.748 344.914 875.997C345.87 875.883 346.786 875.777 347.665 875.679C354.64 882.42 360.053 887.467 365.305 892.143C385.927 910.513 402.306 921.145 418.411 926.659ZM464.757 900.733C461.631 897.98 458.533 894.998 455.466 891.788C429.589 864.697 407.765 848.66 386.815 841.317C377.152 837.919 369.031 836.622 359.941 836.622L359.968 836.65C355.068 836.65 349.884 837.028 344.029 837.66C339.045 832.756 335.312 829.129 331.702 825.649C317.808 812.274 306.74 802.352 295.807 793.481C292.068 790.437 281.859 782.958 268.893 773.486C263.474 769.542 258.806 766.116 257.128 764.847C250.4 759.727 244.386 754.825 239.046 750.086C240.021 744.983 241.337 739.36 243.056 732.829C243.255 732.083 243.434 731.417 243.641 730.647C243.888 729.725 244.176 728.655 244.585 727.124C245.513 723.657 246.032 721.705 246.496 719.917L246.878 718.402C251.163 701.247 252.842 687.421 247.929 671.453C245.622 663.987 242.906 658.869 239.112 654.83C235.891 651.404 232.11 649.111 227.388 646.723L227.385 646.721C226.486 646.272 225.83 645.944 223.676 644.907C222.265 644.228 220.963 643.589 219.752 642.981C229.256 624.027 232.502 615.575 231.496 603.963C230.295 590.001 221.178 577.977 202.807 566.103C164.059 541.073 163.827 526.128 169.341 513.695C171.566 508.686 175.128 503.377 181.27 495.979C182.457 494.546 186.006 490.438 189.432 486.48C190.171 485.622 190.915 484.76 191.647 483.911C194.699 480.372 197.536 477.082 198.89 475.453C232.849 434.615 241.172 397.231 225.305 348.433C245.668 314.38 265.806 283.922 292.832 245.441C296.239 240.589 299.723 235.933 303.281 231.476C304.058 231.469 304.846 231.465 305.648 231.465V231.424C310.848 231.424 316.594 231.575 323.404 231.861C336.193 232.407 340.888 232.489 347.33 231.998C364.732 230.674 379.745 224.6 399.153 211.021C423.523 193.969 454.067 177.339 483.421 164.257C490.421 165.3 498.022 166.454 510.605 168.37L513.335 168.793C526.424 170.786 534.231 171.973 541.683 173.079L550.145 174.334C566.687 176.777 579.038 180.64 592.782 187.696C594.516 188.597 598.897 190.958 602.09 192.691C604.411 193.947 606.362 194.998 607.045 195.353C619.765 201.958 629.387 204.415 642.585 204.415C652.972 204.415 659.687 203.309 686.424 198.164C690.542 197.372 694.336 196.669 697.865 196.05L698.38 196.499C704.958 202.299 712.642 209.26 722.537 218.418L728.188 223.645C729.591 224.936 730.853 226.1 732.04 227.195C732.874 227.963 733.67 228.698 734.452 229.418C751.404 244.977 770.73 253.698 805.055 266.295L809.191 267.81C816.521 270.497 822.95 272.923 828.653 275.178C828.732 276.102 828.809 277.044 828.886 278.005C832.557 324.409 840.009 352.469 874.485 396.089C896.35 423.767 907.446 447.051 908.401 467.291C909.07 481.608 906.518 490.643 895.38 513.34L895.326 513.435C880.272 544.089 875.741 563.005 888.597 594.041C902.573 627.738 899.175 648.087 872.833 688.65C872.656 688.923 869.681 693.481 868.848 694.778C867.333 697.125 866.105 699.049 864.958 700.878C863.07 703.905 861.382 706.74 859.874 709.428C850.477 716.561 839.532 724.478 826.429 733.675C810.774 744.661 800.333 757.368 793.536 773.691C790.629 780.665 789.101 785.81 785.688 798.735C784.025 805.026 782.404 810.439 780.695 815.163C777.566 815.477 774.195 815.702 770.525 815.85L767.768 815.945C764.984 816.027 762.186 816.082 758.774 816.082H754.857C751.104 816.068 746.6 816.027 740.826 815.959H739.352C731.368 815.877 727.069 815.85 722.06 815.85C684.322 815.85 656.322 835.406 630.736 858.167C592.221 855.15 575.495 854.999 557.993 859.169C540.987 863.222 525.646 870.347 504.9 881.293C484.455 892.075 477.29 895.787 470.82 898.435L469.36 899.022C468.015 899.553 466.583 900.085 464.757 900.733ZM488.953 917.189C503.674 924.378 518.906 926.872 534.517 924.612C561.516 920.702 583.467 902.075 605.983 881.107C584.421 879.928 574.086 880.596 563.643 883.08C550.691 886.165 538.748 891.201 516.324 903.034C502.848 910.144 494.9 914.304 488.953 917.189ZM691.409 861.404C711.555 861.177 726.745 858.864 739.615 854.16H738.915C731.109 854.065 726.905 854.037 722.019 854.037C711.049 854.037 701.007 856.76 691.409 861.404ZM808.833 807.126C824.432 798.361 834.756 782.488 844.84 750.724C843.419 751.727 841.973 752.745 840.5 753.778C828.503 762.199 821.229 770.975 816.179 783.135C813.913 788.581 812.767 792.266 809.396 805.027C809.209 805.733 809.021 806.433 808.833 807.126ZM934.518 622.286C936.889 615.129 938.327 607.937 938.851 600.674C939.56 590.888 938.837 581.539 936.571 571.235C935.85 567.948 933.437 559.243 926.375 537.025C916.877 557.695 917.688 564.439 923.878 579.369C930.33 594.933 933.716 609.013 934.518 622.286ZM902.359 369.693C902.362 369.094 902.365 368.494 902.368 367.892C902.546 338.125 893.606 316.589 874.212 300.129C872.551 298.721 870.888 297.381 869.184 296.091C873.077 323.66 880.878 342.007 902.359 369.693ZM824.266 247.214C821.117 236.336 816.131 229.144 807.43 220.642C803.445 216.739 798.654 212.849 793.209 209.083L792.786 208.782C777.731 197.768 759.743 192.309 737.783 192.077C735.269 192.052 732.785 192.082 730.26 192.174C733.042 194.718 736.01 197.449 739.202 200.402L744.852 205.63C745.959 206.653 746.979 207.592 747.942 208.48C749.035 209.487 750.055 210.427 751.049 211.348C763.578 222.84 778.168 230.292 813.504 243.257L817.612 244.759C819.901 245.597 822.117 246.414 824.266 247.214ZM657.089 164.715C656.101 164.089 655.102 163.466 654.091 162.843C626.48 145.824 600.221 137.894 571.464 137.894H571.436C569.622 137.894 567.676 137.99 565.608 138.178C581.826 141.343 595.6 146.158 610.211 153.658C612.327 154.749 616.558 157.029 620.284 159.049C621.119 159.5 621.9 159.923 622.572 160.288C623.548 160.818 624.296 161.224 624.651 161.41C631.844 165.149 635.693 166.173 642.585 166.173C646.677 166.173 649.864 165.932 657.089 164.715ZM437.86 159.114C418.511 169.288 400.329 180.194 385.027 190.903C366.929 203.569 356.106 206.708 345.433 207.513C340.579 207.886 337.093 207.869 325.25 207.371C341.463 191.916 358.92 180.064 377.465 171.96C397.188 163.343 415.896 159.347 437.86 159.114ZM249.46 240.782C234.116 247.374 222.113 257.561 215.036 270.403C209.609 280.253 207.538 291.108 208.847 302.097C221.311 282.269 234.353 262.639 249.46 240.782ZM207.324 379.31C197.603 396.418 187.394 415.007 176.002 436.214C165.38 455.977 158.381 473.552 154.702 490.099C156.845 487.063 159.347 483.833 162.299 480.27C163.65 478.646 167.117 474.634 170.788 470.389C174.541 466.049 178.418 461.559 179.946 459.716C200.271 435.276 211.894 412.12 207.324 379.31ZM160.675 564.081C167.021 580.545 176.932 598.228 191.179 618.908C193.682 622.549 196.372 625.803 199.332 628.763C206.386 614.412 207.36 610.562 206.97 606.065C206.479 600.442 200.582 593.932 189.418 586.726C179.818 580.526 169.331 572.999 160.675 564.081ZM205.309 678.476C204.584 682.248 204.281 685.875 204.281 689.741C204.281 697.465 205.768 704.894 208.951 712.326C209.132 711.64 209.29 711.031 209.44 710.446L209.795 709.04C213.467 694.368 213.221 688.65 211.378 682.699C211.231 682.2 211.083 681.776 210.959 681.42C210.934 681.348 210.91 681.278 210.887 681.211C210.655 681.089 210.396 680.952 210.109 680.816C209.399 680.461 208.853 680.188 207.066 679.328C206.47 679.041 205.885 678.757 205.309 678.476ZM237.026 780.391C238.713 781.721 240.441 783.059 242.21 784.405C243.767 785.587 247.17 788.075 251.584 791.302C252.47 791.95 253.396 792.628 254.357 793.331C263.802 800.223 276.727 809.667 280.289 812.561C288.96 819.6 297.783 827.393 308.258 837.286L307.395 837.045C278.76 829.048 269.275 825.417 259.052 818.511C251.614 813.489 246.195 807.511 242.483 800.264C239.501 794.427 237.699 787.879 237.026 780.391Z" fill="url(#paint0_radial_303_1090)"/>
<path fill-rule="evenodd" clip-rule="evenodd" d="M385.236 732.997H423.823C435.188 732.997 444.402 723.783 444.402 712.418V671.259C444.402 659.893 453.615 650.68 464.981 650.68H672.06C683.426 650.68 692.64 641.466 692.64 630.1V588.942C692.64 577.576 701.853 568.363 713.219 568.363H756.95C768.316 568.363 777.529 559.149 777.529 547.783V424.307C777.529 412.942 768.316 403.728 756.95 403.728H713.219C701.853 403.728 692.64 394.514 692.64 383.149V343.276C692.64 331.911 683.426 322.697 672.06 322.697H402.108C381.424 322.697 364.657 339.464 364.657 360.148V712.418C364.657 723.783 373.871 732.997 385.236 732.997ZM470.125 568.362H665.628C679.835 568.362 691.352 556.845 691.352 542.638V430.738C691.352 416.531 679.835 405.014 665.628 405.014H470.125C455.918 405.014 444.401 416.531 444.401 430.738V542.638C444.401 556.845 455.918 568.362 470.125 568.362Z" fill="#121415"/>
<defs>
<radialGradient id="paint0_radial_303_1090" cx="0" cy="0" r="1" gradientUnits="userSpaceOnUse" gradientTransform="translate(218.376 907.514) rotate(-40.976) scale(955.3 1796.66)">
<stop offset="0.223957" stop-color="#5F2FF6"/>
<stop offset="1" stop-color="#FA01FF"/>
</radialGradient>
</defs>
</svg>
